<svg preserveAspectRatio="none" width="100%" height="100%" overflow="visible" style="display: block;" viewBox="0 0 68 68" fill="none" xmlns="http://www.w3.org/2000/svg">
<g id="g12">
<g id="g14">
<g id="path16">
</g>
</g>
<path id="path18" d="M48.2376 41.5084H19.7625C19.1757 41.5084 18.7 41.9844 18.7 42.5709C18.7 43.1577 19.1757 43.6334 19.7625 43.6334H48.2376C48.8245 43.6334 49.3001 43.1577 49.3001 42.5709C49.3001 41.9844 48.8245 41.5084 48.2376 41.5084Z" fill="var(--fill-0, #ED1F24)"/>
<path id="path20" d="M48.2376 32.9375H19.7625C19.1757 32.9375 18.7 33.4132 18.7 34C18.7 34.5868 19.1757 35.0625 19.7625 35.0625H48.2376C48.8245 35.0625 49.3001 34.5868 49.3001 34C49.3001 33.4132 48.8245 32.9375 48.2376 32.9375Z" fill="var(--fill-0, #ED1F24)"/>
<path id="path22" d="M48.2376 24.3668H19.7625C19.1757 24.3668 18.7 24.8425 18.7 25.4293C18.7 26.0161 19.1757 26.4918 19.7625 26.4918H48.2376C48.8245 26.4918 49.3001 26.0161 49.3001 25.4293C49.3001 24.8425 48.8245 24.3668 48.2376 24.3668Z" fill="var(--fill-0, #ED1F24)"/>
</g>
</svg>
